<?xml version="1.0" encoding="UTF-8" standalone="no"?>
<svg
   width="120"
   height="120"
   viewBox="0 0 120 120"
   fill="none"
   version="1.1"
   id="svg15"
   sodipodi:docname="logo.svg"
   inkscape:export-filename="logo.png"
   inkscape:export-xdpi="819.20001"
   inkscape:export-ydpi="819.20001"
   inkscape:version="1.2.2 (1:1.2.2+202305151914+b0a8486541)"
   xmlns:inkscape="http://www.inkscape.org/namespaces/inkscape"
   xmlns:sodipodi="http://sodipodi.sourceforge.net/DTD/sodipodi-0.dtd"
   xmlns="http://www.w3.org/2000/svg"
   xmlns:svg="http://www.w3.org/2000/svg">
  <sodipodi:namedview
     id="namedview17"
     pagecolor="#ffffff"
     bordercolor="#000000"
     borderopacity="0.25"
     inkscape:showpageshadow="2"
     inkscape:pageopacity="0.0"
     inkscape:pagecheckerboard="0"
     inkscape:deskcolor="#d1d1d1"
     showgrid="false"
     inkscape:zoom="4.7083333"
     inkscape:cx="59.893805"
     inkscape:cy="60.106195"
     inkscape:window-width="1366"
     inkscape:window-height="731"
     inkscape:window-x="0"
     inkscape:window-y="0"
     inkscape:window-maximized="1"
     inkscape:current-layer="svg15" />
  <g
     clip-path="url(#clip0_13_2)"
     id="g8">
    <path
       d="M60 120C93.1371 120 120 93.1371 120 60C120 26.8629 93.1371 0 60 0C26.8629 0 0 26.8629 0 60C0 93.1371 26.8629 120 60 120Z"
       fill="#008000"
       id="path2" />
    <path
       d="M63.0381 68.6102C62.6572 68.1194 57.3004 68.9847 61.6845 72.8264L72.0939 78.049C81.3261 83.4148 83.7923 89.2153 89.9628 92.208C92.2065 93.2962 95.8238 93.3863 97.229 93.9883C99.138 94.8062 100.448 96.5088 108.903 89.7338C113.432 83.21 111.905 79.5244 110.468 78.9489C108.652 78.2215 109.172 74.1864 108.287 71.8871C107.266 69.2327 106.361 66.4516 104.691 64.1495C103.337 62.2835 100.369 60.0505 98.1885 58.0216C96.6967 56.6335 93.4734 53.3789 93.6869 53.8857C90.4518 54.0144 91.794 56.8608 91.9902 58.4822C92.2352 60.5073 98.0541 65.2092 95.3417 63.3267C92.7317 61.5153 87.7618 58.2544 83.8871 55.8513C80.3922 53.6837 73.2551 49.5921 73.2551 49.5921C69.7813 47.6508 66.7261 50.3722 71.024 53.7123L84.9113 64.5047C84.6124 62.8278 65.4086 54.1558 65.4041 54.2664C62.0574 52.6147 59.0887 56.0504 63.9904 58.7251C70.0805 62.0484 75.3574 65.9754 80.7696 69.8752C80.4942 68.8972 62.4688 60.5123 62.4539 60.5599C62.0186 59.6265 55.8401 61.7157 61.0305 64.845C66.8823 68.373 72.4597 71.6665 77.4904 75.5742C72.7309 71.6566 63.0494 68.4986 63.0381 68.6102Z"
       fill="white"
       id="path4" />
    <path
       d="M35.1898 72.6675C36.4989 74.1198 37.5784 82.0899 30.8959 73.7495L22.5337 62.3253L18.7865 57.6539C15.3746 52.6817 12.2438 48.7873 10.2371 43.7215C9.42836 41.6799 9.41392 38.711 8.90278 37.2702C8.20838 35.313 6.59277 33.8968 13.8933 25.8916C20.6928 21.7874 24.2735 23.5464 24.7561 25.0174C25.3661 26.8765 29.5896 26.239 31.6644 27.6444C33.8398 29.118 36.0358 30.5566 38.7857 31.6014C41.3116 33.1834 53.4365 35.0441 52.192 35.9644C51.8573 39.1848 50.132 39.7362 46.3847 39.9569C43.6026 40.1208 38.5029 38.3207 39.3816 41.1095C40.3364 44.1397 44.2152 49.0998 46.9848 52.1853C47.2906 52.5261 55.1035 62.3523 55.1035 62.3523C56.6772 63.7217 58.6129 72.191 50.4925 64.1957L37.5407 51.4436C37.8059 51.8168 49.3682 70.1299 49.3682 70.1299C50.7618 71.6797 51.9771 80.1273 44.8284 71.2564L31.917 55.2342C32.1639 55.5822 42.8994 72.6727 42.8994 72.6727C44.2053 74.1114 45.1555 82.1185 38.5322 73.8199L26.0203 58.1432C29.1941 63.1586 35.1898 72.6675 35.1898 72.6675Z"
       fill="white"
       id="path6" />
  </g>
  <defs
     id="defs13">
    <clipPath
       id="clip0_13_2">
      <rect
         width="120"
         height="120"
         fill="white"
         id="rect10" />
    </clipPath>
  </defs>
</svg>
